<svg xmlns="http://www.w3.org/2000/svg" viewBox="0 0 79.16 20.36"><defs><style>.cls-1{fill:#fff;}</style></defs><g id="图层_2" data-name="图层 2"><g id="图层_1-2" data-name="图层 1"><g id="图层_4" data-name="图层 4"><path class="cls-1" d="M26.43,20.32a9.4,9.4,0,0,1-8.33-9.45v-9A1.84,1.84,0,0,1,19.94,0h1.12A1.84,1.84,0,0,1,22.9,1.87v9.07a4.54,4.54,0,0,0,4,4.59,4.41,4.41,0,0,0,4.85-4.39V1.87A1.84,1.84,0,0,1,33.57,0h1.12a1.84,1.84,0,0,1,1.85,1.84v9.27A9.24,9.24,0,0,1,26.43,20.32Z"/><path class="cls-1" d="M55.85,20.21H41.47a1.84,1.84,0,0,1-1.84-1.84V1.87A1.84,1.84,0,0,1,41.47,0H55.8a1.84,1.84,0,0,1,1.84,1.84V3A1.84,1.84,0,0,1,55.8,4.83H46.27a1.85,1.85,0,0,0-1.84,1.84v6.89a1.84,1.84,0,0,0,1.84,1.84h4.78a1.84,1.84,0,0,0,1.84-1.84h0a1.84,1.84,0,0,0-1.84-1.84h-.93a1.84,1.84,0,0,1-1.84-1.85V8.76a1.84,1.84,0,0,1,1.84-1.85h5.73A1.85,1.85,0,0,1,57.7,8.76v9.61A1.85,1.85,0,0,1,55.85,20.21Z"/><rect class="cls-1" x="62.42" y="7.79" width="16.74" height="4.8" rx="1.84"/><rect class="cls-1" x="62.42" y="0.03" width="16.74" height="4.8" rx="1.84"/><rect class="cls-1" x="62.42" y="15.56" width="16.74" height="4.8" rx="1.84"/><path class="cls-1" d="M16.52,5.78A6.82,6.82,0,0,0,9.68,0H1.84A1.85,1.85,0,0,0,0,1.84V3.56A1.24,1.24,0,0,0,1.24,4.8H9.91a1.87,1.87,0,0,1,1.85,2.06A1.91,1.91,0,0,1,9.91,8.51H1.24A1.25,1.25,0,0,0,0,9.76v8a2.41,2.41,0,0,0,2.4,2.4h0a2.4,2.4,0,0,0,2.4-2.4V13.32H9.91A6.67,6.67,0,0,0,16.52,5.78Z"/></g></g></g></svg>