<?xml version="1.0" encoding="iso-8859-1"?>
<!-- Generator: Adobe Illustrator 19.0.0, SVG Export Plug-In . SVG Version: 6.00 Build 0)  -->
<svg version="1.1" id="Capa_1" xmlns="http://www.w3.org/2000/svg" xmlns:xlink="http://www.w3.org/1999/xlink" x="0px" y="0px"
	 viewBox="0 0 512 512" style="enable-background:new 0 0 512 512;" xml:space="preserve">
<path style="fill:#FFDA68;" d="M411.196,46.666h-62.086c-8.627,0-15.622,6.994-15.622,15.622V93.33h-30.843V15.622
	C302.645,6.994,295.65,0,287.023,0h-62.086c-8.627,0-15.622,6.994-15.622,15.622v31.044H162.85c-8.627,0-15.622,6.994-15.622,15.622
	V93.33h-46.465c-8.627,0-15.622,6.994-15.622,15.622v108.597c0,8.627,6.994,15.622,15.622,15.622h310.432
	c8.627,0,15.622-6.994,15.622-15.622V62.287C426.818,53.659,419.823,46.666,411.196,46.666z"/>
<path style="fill:#FF5957;" d="M423.892,512H88.108c-8.288,0-15.133-6.473-15.598-14.748L56.894,218.423
	c-0.24-4.288,1.296-8.486,4.246-11.607c2.951-3.12,7.056-4.889,11.351-4.889h367.016c4.295,0,8.399,1.768,11.351,4.889
	c2.95,3.12,4.487,7.318,4.246,11.607l-15.616,278.829C439.026,505.527,432.18,512,423.892,512z"/>
<path style="fill:#FFDA68;" d="M256,416.332c-24.723,0-48.211-5.186-66.137-14.605c-21.112-11.094-32.74-26.99-32.74-44.762
	s11.627-33.668,32.74-44.762c17.926-9.419,41.414-14.605,66.137-14.605c24.723,0,48.211,5.186,66.137,14.605
	c21.112,11.094,32.74,26.99,32.74,44.762s-11.627,33.668-32.74,44.762C304.211,411.144,280.723,416.332,256,416.332z"/>
<path style="fill:#FFA918;" d="M411.196,46.666h-62.086c-8.627,0-15.622,6.994-15.622,15.622V93.33h-30.843V15.622
	C302.645,6.994,295.65,0,287.023,0h-31.044v233.171h155.217c8.627,0,15.622-6.994,15.622-15.622V62.287
	C426.818,53.659,419.823,46.666,411.196,46.666z"/>
<path style="fill:#FC1B5B;" d="M439.508,201.927H255.979V512h167.913c8.288,0,15.133-6.473,15.598-14.748l15.616-278.829
	c0.24-4.288-1.296-8.486-4.246-11.607C447.907,203.695,443.803,201.927,439.508,201.927z"/>
<path style="fill:#FFA918;" d="M322.136,312.201c-17.926-9.419-41.414-14.605-66.137-14.605c-0.007,0-0.014,0-0.021,0v118.735
	c0.007,0,0.014,0,0.021,0c24.723,0,48.211-5.186,66.137-14.605c21.112-11.094,32.74-26.99,32.74-44.762
	S343.249,323.295,322.136,312.201z"/>
<g>
</g>
<g>
</g>
<g>
</g>
<g>
</g>
<g>
</g>
<g>
</g>
<g>
</g>
<g>
</g>
<g>
</g>
<g>
</g>
<g>
</g>
<g>
</g>
<g>
</g>
<g>
</g>
<g>
</g>
</svg>
